<svg xmlns="http://www.w3.org/2000/svg" xmlns:xlink="http://www.w3.org/1999/xlink" width="375" height="812" viewBox="0 0 375 812"><defs><style>.a{fill:none;}.b{fill:#ed1b46;}.c{fill:#fff;}.d{opacity:0;clip-path:url(#a);}</style><clipPath id="a"><rect class="a" width="6" height="6"/></clipPath></defs><rect class="b" width="375" height="812"/><g transform="translate(-87 210)"><g transform="translate(0 16)"><rect class="c" width="124.433" height="123.943" rx="30" transform="translate(212 118)"/><g transform="translate(-2.061 5.421)"><g transform="translate(237.824 129.046)"><path class="b" d="M39.028,0A39.028,39.028,0,0,1,78.056,39.028c0,13.989-8.322,26.259-19.448,33.19-5.914,3.685-12.84,23.921-19.58,25.727-7.67-2.055-15.109-22.506-21.512-27.006C7.529,63.92,0,52.241,0,39.028A39.028,39.028,0,0,1,39.028,0Z"/></g><path class="c" d="M38.159,48.068H10.383a2.1,2.1,0,0,1-1.2-.346,3.128,3.128,0,0,1-.84-1.2h0V33.5a10.375,10.375,0,0,1-4.521-2.654,13.961,13.961,0,0,1-2.779-4.287A11.616,11.616,0,0,1,.013,21.472a14.651,14.651,0,0,1,3.2-8.3A13.177,13.177,0,0,1,7.449,10.19a14.237,14.237,0,0,1,2.26-.834s0,0,0-.005a10.621,10.621,0,0,1,.96-1.727A17.707,17.707,0,0,1,14.194,3.8a17.588,17.588,0,0,1,4.875-2.667A16.628,16.628,0,0,1,24.631,0,18.3,18.3,0,0,1,31.5,1.271,16.641,16.641,0,0,1,36.893,4.8a11.983,11.983,0,0,1,1.668,2.224l.013.012a10.576,10.576,0,0,0,1.8,2.323,15.828,15.828,0,0,0,1.345.99l0,0,.009.007a23.154,23.154,0,0,1,4.1,3.38,11.649,11.649,0,0,1,2.917,7.735,13.9,13.9,0,0,1-3.475,8.472,14.612,14.612,0,0,1-4.083,3.009l0,0c-.5.273-.809.435-.809.542-.034.9-.013,9.223,0,12.755,0,.164,0,.256,0,.265a4.017,4.017,0,0,1-1.011,1.2A2.257,2.257,0,0,1,38.159,48.068ZM11.622,33.736h0v3.635H36.478V30.652h1.7a10.527,10.527,0,0,0,4.481-2.495,9.576,9.576,0,0,0,2.46-6.248,10.505,10.505,0,0,0-.657-3.462,8.953,8.953,0,0,0-1.8-3.075A16.165,16.165,0,0,0,38.808,12.4l-2.966-.322-2.689.322a7.316,7.316,0,0,0-2.062.672,16.528,16.528,0,0,0-2.255,1.615.492.492,0,0,0,.1-.062h0a6.221,6.221,0,0,1-1.245,2.921,6.663,6.663,0,0,1-2.711,2.152,5.682,5.682,0,0,1-2.728.708,6.281,6.281,0,0,1-1.64-.229,2.444,2.444,0,0,1-1.594-1.316,3.161,3.161,0,0,1-.07-2.507A7.633,7.633,0,0,1,22.837,12.4a4.668,4.668,0,0,1,2.217-.5,9.325,9.325,0,0,1,1.43.128l.217.036.064.01a4.849,4.849,0,0,0,.683.085c.13,0,.209-.026.24-.078a6.147,6.147,0,0,1,2.5-1.79,16.639,16.639,0,0,1,5.9-1.116c-.417-1.214-2.419-3-3.349-3.639a11.46,11.46,0,0,0-3.819-1.607,17.321,17.321,0,0,0-3.945-.47,13.554,13.554,0,0,0-8.939,3.162A17.1,17.1,0,0,0,12.781,11a15.482,15.482,0,0,1-.855,1.4A8.02,8.02,0,0,0,6.187,14.97a10.58,10.58,0,0,0-2.866,6.055c-.157,1.253-.043,3.792,2.464,6.71a8.445,8.445,0,0,0,3.672,2.673,22.262,22.262,0,0,0,4.3.375,16.533,16.533,0,0,0,2.211-.132,14.681,14.681,0,0,0,4.258-1.173h0s0,0,0-.007a2.715,2.715,0,0,1-.272-.936,2.537,2.537,0,0,1,.655-1.991c1.168-1.316,7.792-5.026,8.545-5.444l.013-.007h0c.011,0,.766.017,1.019.361s.028.974,0,1.045l-4.972,3.183.594,1,5.115-3.081a1.426,1.426,0,0,1,.785.468,1.47,1.47,0,0,1,0,1.031v.005L26.5,28.157l.615,1.322,5.626-3.261s.647.1.862.468a1.616,1.616,0,0,1,0,1.044v0l-.066.04c-1.5.894-8.992,5.365-9.643,5.483a.883.883,0,0,1-.151.013,9.331,9.331,0,0,1-2.592-.849,19.53,19.53,0,0,1-4.6,1.314,17.256,17.256,0,0,1-2.338.146,22.956,22.956,0,0,1-2.585-.145Z" transform="translate(252.061 143.711)"/></g></g><g class="d" transform="translate(272 206)"><g transform="translate(-269 -204)"><rect class="b" width="2" height="2" rx="1" transform="translate(269 204)"/></g><g transform="translate(-266 -204)"><rect class="b" width="2" height="2" rx="1" transform="translate(269 204)"/></g><g transform="translate(-269 -201)"><rect class="b" width="2" height="2" rx="1" transform="translate(269 204)"/></g><g transform="translate(-266 -201)"><rect class="b" width="2" height="2" rx="1" transform="translate(269 204)"/></g></g><g transform="translate(259.574 188.46)"><path class="b" d="M11.051,24.752l.016-4.963s-.153-.818,1.271-.818h4.506c1.684,0,1.58.818,1.58.818l-.019,4.947Z" transform="translate(0)"/></g><path class="c" d="M24.794,4.275H21.168l.015,4.4,3.611,3.064Z" transform="translate(271 167.186)"/></g></svg>