<svg xmlns="http://www.w3.org/2000/svg" xmlns:xlink="http://www.w3.org/1999/xlink" width="375" height="395" viewBox="0 0 375 395"><defs><style>.a,.r{fill:#fff;}.b,.c,.h{fill:none;}.b,.d,.j,.k,.m,.o{clip-rule:evenodd;}.ab,.d{fill:#192c54;}.e{fill:#96c249;}.f{fill:#95c846;}.g{fill:#bbc5d9;}.ad,.bq,.h{fill-rule:evenodd;}.i,.j{fill:#17175e;}.k,.l{fill:#ffd861;}.m,.n{fill:#ffc630;}.o,.p{fill:#ffdf6c;}.q{clip-path:url(#a);}.r{opacity:0.608;}.s{opacity:0.001;clip-path:url(#b);}.t{clip-path:url(#c);}.u{fill:#005f73;}.v{clip-path:url(#e);}.w{fill:#9aa1ae;}.x{clip-path:url(#h);}.y{clip-path:url(#i);}.z{clip-path:url(#j);}.aa{clip-path:url(#k);}.ac{clip-path:url(#l);}.ad{fill:url(#m);}.ae{isolation:isolate;}.af{clip-path:url(#o);}.ag{clip-path:url(#p);}.ah{clip-path:url(#r);}.ai{clip-path:url(#t);}.aj{fill:url(#u);}.ak{clip-path:url(#v);}.al{fill:#fc9;}.am{clip-path:url(#x);}.an{fill:#963;}.ao{clip-path:url(#z);}.ap{fill:#a27343;}.aq{clip-path:url(#ab);}.ar{fill:#c93;}.as{clip-path:url(#ad);}.at{fill:#bc9035;}.au{clip-path:url(#af);}.av{fill:#5c3c1e;}.aw{clip-path:url(#ah);}.ax{clip-path:url(#aj);}.ay{clip-path:url(#al);}.az{clip-path:url(#an);}.ba{clip-path:url(#ap);}.bb{clip-path:url(#ar);}.bc{clip-path:url(#at);}.bd{clip-path:url(#av);}.be{clip-path:url(#ax);}.bf{clip-path:url(#az);}.bg{clip-path:url(#bb);}.bh{clip-path:url(#bd);}.bi{clip-path:url(#bf);}.bj{clip-path:url(#bh);}.bk{clip-path:url(#bj);}.bl{clip-path:url(#bl);}.bm{clip-path:url(#bn);}.bn{clip-path:url(#bp);}.bo{fill:#ff7012;}.bp{clip-path:url(#br);}.bq,.ea{fill:#12124f;}.br{clip-path:url(#bu);}.bs{clip-path:url(#bv);}.bt{clip-path:url(#bw);}.bu{clip-path:url(#bx);}.bv{clip-path:url(#bz);}.bw{clip-path:url(#cb);}.bx{fill:url(#cc);}.by{clip-path:url(#cd);}.bz{clip-path:url(#cf);}.ca{clip-path:url(#ch);}.cb{fill:url(#ci);}.cc{clip-path:url(#cj);}.cd{fill:#ecba89;}.ce{clip-path:url(#cl);}.cf{clip-path:url(#cn);}.cg{fill:#9ff;}.ch{clip-path:url(#cp);}.ci{clip-path:url(#cr);}.cj{clip-path:url(#ct);}.ck{clip-path:url(#cv);}.cl{clip-path:url(#cx);}.cm{clip-path:url(#cz);}.cn{clip-path:url(#db);}.co{clip-path:url(#dd);}.cp{clip-path:url(#df);}.cq{clip-path:url(#dh);}.cr{clip-path:url(#dj);}.cs{clip-path:url(#dl);}.ct{clip-path:url(#dn);}.cu{clip-path:url(#dp);}.cv{clip-path:url(#dr);}.cw{clip-path:url(#dt);}.cx{clip-path:url(#dv);}.cy{clip-path:url(#dx);}.cz{clip-path:url(#dz);}.da{clip-path:url(#eb);}.db{clip-path:url(#ed);}.dc{clip-path:url(#ef);}.dd{clip-path:url(#eh);}.de{clip-path:url(#ej);}.df{clip-path:url(#el);}.dg{clip-path:url(#en);}.dh{clip-path:url(#ep);}.di{clip-path:url(#er);}.dj{clip-path:url(#et);}.dk{clip-path:url(#eu);}.dl{fill:#93d1bc;}.dm{clip-path:url(#ev);}.dn{clip-path:url(#ex);}.do{clip-path:url(#ez);}.dp{clip-path:url(#fb);}.dq{fill:#e9d7a6;}.dr{clip-path:url(#fd);}.ds{clip-path:url(#ff);}.dt{clip-path:url(#fh);}.du{clip-path:url(#fi);}.dv{clip-path:url(#fj);}.dw{clip-path:url(#fl);}.dx{clip-path:url(#fn);}.dy{clip-path:url(#fp);}.dz{clip-path:url(#fr);}.eb{clip-path:url(#ft);}.ec{clip-path:url(#fv);}.ed{clip-path:url(#fw);}.ee{clip-path:url(#fx);}.ef{clip-path:url(#fz);}.eg{clip-path:url(#gb);}.eh{clip-path:url(#gc);}.ei{clip-path:url(#gd);}.ej{fill:#093;}.ek{clip-path:url(#gf);}.el{fill:#09a23c;}.em{clip-path:url(#gh);}.en{fill:#3c3;}.eo{clip-path:url(#gj);}.ep{clip-path:url(#gl);}.eq{clip-path:url(#gn);}.er{clip-path:url(#gp);}.es{clip-path:url(#gr);}.et{clip-path:url(#gt);}.eu{clip-path:url(#gv);}.ev{clip-path:url(#gx);}.ew{clip-path:url(#gz);}.ex{clip-path:url(#hb);}.ey{clip-path:url(#hd);}</style><clipPath id="a"><rect class="a" width="375" height="395"/></clipPath><clipPath id="b"><path class="b" d="M2.193-119.954c.532-1.549,26.331-20.138,59.843-13.942s34.842,5.938,43.619,6.713,16.224,3.615,26.863,9.811,46.012,1.549,48.406,9.811,5.053,12.651-39.63,18.589S106.187-69.35,75.069-76.838,39.7-82.776,16.556-88.2c-6.682-1.566-10.7-4.876-13.042-8.792-5.76-9.644-1.32-22.964-1.32-22.964" transform="translate(-0.56 135.156)"/></clipPath><clipPath id="c"><path class="c" d="M-31-290.129H248.043V-561H-31Z" transform="translate(31 561)"/></clipPath><clipPath id="e"><path class="b" d="M18.9-492.377q16.139,1.575,30.873,2.994l27.084,2.644c2.01.2,3.622,3.008,3.6,6.283q-.241,41.524-.479,82.5-.241,40.668-.476,80.875c-.018,3.133-1.625,6.2-3.6,6.852q-12.744,4.188-26.55,8.732-14.437,4.748-30.184,9.948c-2.577.852-4.708-1.407-4.714-5.038q-.089-46.464-.174-93.628-.092-47.484-.185-95.754c-.007-3.8,2.162-6.66,4.8-6.4" transform="translate(-14.096 492.393)"/></clipPath><clipPath id="h"><path class="b" d="M29.188-494.357l30.885,3.131,27.083,2.746c2.532.256,4.565,3.822,4.541,7.942q-.246,41.429-.488,82.29-.241,40.6-.479,80.709c-.023,3.943-2.064,7.81-4.542,8.634l-26.546,8.828L29.463-290.041c-3.25,1.081-5.937-1.731-5.947-6.324q-.1-46.585-.194-93.852-.1-47.64-.2-96.025c-.01-4.8,2.735-8.453,6.063-8.115" transform="translate(-23.125 494.379)"/></clipPath><clipPath id="i"><path class="a" d="M-31-290.129H248.043V-561H-31Z" transform="translate(31 561)"/></clipPath><clipPath id="j"><path class="d" d="M30.646-490.316q16.14,1.576,30.873,2.994L88.6-484.677c2.01.2,3.622,3.007,3.6,6.283q-.241,41.523-.479,82.495-.241,40.669-.476,80.875c-.018,3.133-1.625,6.2-3.6,6.852q-12.744,4.187-26.55,8.731-14.437,4.749-30.184,9.948c-2.577.852-4.707-1.407-4.714-5.038q-.09-46.464-.175-93.628-.092-47.484-.185-95.754c-.007-3.8,2.162-6.66,4.8-6.4" transform="translate(-25.842 490.332)"/></clipPath><clipPath id="k"><path class="e" d="M-31-290.129H248.043V-561H-31Z" transform="translate(31 561)"/></clipPath><clipPath id="l"><path class="f" d="M-31-290.129H248.043V-561H-31Z" transform="translate(31 561)"/></clipPath><linearGradient id="m" x1="0.5" x2="0.5" y2="1" gradientUnits="objectBoundingBox"><stop offset="0" stop-color="#ffe172"/><stop offset="1" stop-color="#fdbe2b"/></linearGradient><clipPath id="o"><rect class="g" width="126.289" height="44.619"/></clipPath><clipPath id="p"><path class="b" d="M201.989-370.338l1.066,6.854-.424,17.818,18.737,18.119-1.334,1.56s-23.548-17.43-24.143-17.971-3.792-19.241-3.07-22.563,4.7-7.184,6.829-6.692c2.431.3,2.589,2.714,2.341,2.874" transform="translate(-192.714 373.255)"/></clipPath><clipPath id="r"><rect class="c" width="29.715" height="48.225"/></clipPath><clipPath id="t"><path class="c" d="M191-326.775h29.715V-375H191Z" transform="translate(-191 375)"/></clipPath><linearGradient id="u" x1="0.366" y1="0.394" x2="0.409" y2="0.391" gradientUnits="objectBoundingBox"><stop offset="0" stop-color="#b34d09"/><stop offset="0.1" stop-color="#bb4f08"/><stop offset="0.2" stop-color="#c25207"/><stop offset="0.3" stop-color="#ca5406"/><stop offset="0.4" stop-color="#d15705"/><stop offset="0.5" stop-color="#d95a05"/><stop offset="0.6" stop-color="#e15c04"/><stop offset="0.7" stop-color="#e85e03"/><stop offset="0.8" stop-color="#f06102"/><stop offset="0.9" stop-color="#f76301"/><stop offset="1" stop-color="#f60"/></linearGradient><clipPath id="v"><path class="b" d="M247.978-275.465l.705.164,3.759,2.076,1.463,1.812-2.532,2.814-2.453,1.306-1.722-1.041-1.238-2.126.869-.317,1.413.329,1.658-.453-2.263-1.926-.867.077-.506-.449,1.713-2.267" transform="translate(-245.961 275.465)"/></clipPath><clipPath id="x"><path class="b" d="M222.851-251.805l16.248,5.472-1.676,4.69-16.248-5.472,1.676-4.69" transform="translate(-221.175 251.805)"/></clipPath><clipPath id="z"><path class="b" d="M227.178-252.047l12.772,4.3,1.082,1.279-16.248-5.472,2.393-.109" transform="translate(-224.785 252.047)"/></clipPath><clipPath id="ab"><path class="b" d="M239.32-248.454l-.615.708-.228.647,1.944.644.227-.636-.216-.988-1.112-.374" transform="translate(-238.477 248.454)"/></clipPath><clipPath id="ad"><path class="b" d="M238.7-246.884l-.228.647,1.944.644.227-.636-1.943-.654" transform="translate(-238.477 246.884)"/></clipPath><clipPath id="af"><path class="b" d="M245.046-235.545a1.149,1.149,0,0,1,.715.507c-.034-.014.174.132-.105-.038a.639.639,0,0,0-.658-.1l-.144.4-.137-.046.148-.414c-.06-.158-.246-.29-.592-.33s-.062-.02-.092-.029a1.255,1.255,0,0,1,.865.045" transform="translate(-244.1 235.647)"/></clipPath><clipPath id="ah"><path class="b" d="M248.829-234.242l.657.221-.094.263c-.023.063-.162.075-.323.032l-.094.262.354.119-.018.05-.809-.273.018-.05.354.119.093-.262c-.153-.062-.256-.156-.233-.219l.094-.263" transform="translate(-248.503 234.242)"/></clipPath><clipPath id="aj"><path class="b" d="M243.282-236.654l4.062,1.368-.369,1.032-4.143-1.4.369-1.032Zm3.877,1.379-3.819-1.286-.322.9,3.819,1.286.322-.9Z" transform="translate(-242.833 236.681)"/></clipPath><clipPath id="al"><path class="b" d="M223.987-242.894l4.082,1.375-.21.587-4.082-1.375.21-.587" transform="translate(-223.777 242.894)"/></clipPath><clipPath id="an"><path class="b" d="M224.5-242.532l.2.068-.163.457-.2-.068.163-.457" transform="translate(-224.337 242.532)"/></clipPath><clipPath id="ap"><path class="b" d="M225.067-242.335l.1.034-.163.457-.1-.034.163-.457" transform="translate(-224.904 242.335)"/></clipPath><clipPath id="ar"><path class="b" d="M225.61-242.147l.1.034-.163.457-.1-.034.163-.457" transform="translate(-225.447 242.147)"/></clipPath><clipPath id="at"><path class="b" d="M226.153-241.959l.1.034-.163.457-.1-.034.163-.457" transform="translate(-225.99 241.959)"/></clipPath><clipPath id="av"><path class="b" d="M226.7-241.77l.1.034-.163.457-.1-.034.163-.457" transform="translate(-226.532 241.77)"/></clipPath><clipPath id="ax"><path class="b" d="M227.238-241.582l.1.034-.163.457-.1-.034.163-.457" transform="translate(-227.075 241.582)"/></clipPath><clipPath id="az"><path class="b" d="M227.781-241.394l.1.034-.163.457-.1-.034.163-.457" transform="translate(-227.618 241.394)"/></clipPath><clipPath id="bb"><path class="b" d="M228.324-241.205l.1.034-.163.457-.1-.034.163-.457" transform="translate(-228.161 241.205)"/></clipPath><clipPath id="bd"><path class="b" d="M228.866-241.017l.175.059-.163.457-.175-.059.163-.457" transform="translate(-228.703 241.017)"/></clipPath><clipPath id="bf"><path class="b" d="M229.425-240.823l.118.04-.163.457-.118-.04.163-.457" transform="translate(-229.262 240.823)"/></clipPath><clipPath id="bh"><path class="b" d="M229.882-240.664l.175.059-.163.457-.176-.059.163-.456" transform="translate(-229.719 240.664)"/></clipPath><clipPath id="bj"><path class="b" d="M230.541-240.436l.175.059-.163.457-.175-.059.163-.457" transform="translate(-230.378 240.436)"/></clipPath><clipPath id="bl"><path class="b" d="M231.148-240.225l.176.059-.163.457-.175-.059.163-.457" transform="translate(-230.985 240.225)"/></clipPath><clipPath id="bn"><path class="b" d="M231.832-239.988l.314.106-.163.457-.314-.106.163-.457" transform="translate(-231.669 239.988)"/></clipPath><clipPath id="bp"><path class="b" d="M224.785-261.539l11.075-7.987,2.7,1.888-1.96.675-1.546-.393-7.873,5.709-2.393.109" transform="translate(-224.785 269.526)"/></clipPath><clipPath id="br"><path class="b" d="M251.416-266.532l.769.538,2.222,11.486-.828-1.194-3.353-9.617,1.19-1.213" transform="translate(-250.226 266.532)"/></clipPath><clipPath id="bu"><rect class="i" width="38.537" height="89.239"/></clipPath><clipPath id="bv"><path class="j" d="M154.514-284.185l2.478,1.165L171.6-244.265l-.387,6.154-11.7,36.642-3.554-1.631s-3.958-19.064-.2-29.16l3.756-10.1s-14.436-13.1-18.059-22.924c-6.827-18.506-5.472-13.067-6.535-18.27-1.479-7.24,1.171-6.957,1.171-6.957l-.046-.2.165-.192,18.306,6.708" transform="translate(-134.469 290.893)"/></clipPath><clipPath id="bw"><path class="i" d="M132-201.761h38.537V-291H132Z" transform="translate(-132 291)"/></clipPath><clipPath id="bx"><path class="b" d="M162.134-393.569l11.611,5.327,5.644,11.032a11.415,11.415,0,0,0-7.225,7.1L170.3-364.5l-12.109,24.272s-4.726,6.133-14.017,2.292-7.176-8.78-7.176-8.78,14.24-46.51,15.847-48.024c.923-.87,3.856-.354,6.181.242,1.719.441,3.108.925,3.108.925" transform="translate(-136.791 395.199)"/></clipPath><clipPath id="bz"><rect class="c" width="45.037" height="62.197"/></clipPath><clipPath id="cb"><path class="c" d="M132-335.254h45.037V-397H132Z" transform="translate(-132 397)"/></clipPath><linearGradient id="cc" x1="0.285" y1="0.39" x2="0.408" y2="0.412" xlink:href="#u"/><clipPath id="cd"><path class="b" d="M206.812-379.088l6.951,5.062,15.3,15.806,32.182.192.215,2.459s-35.748,4.392-36.74,4.416-20.206-13.546-22.5-17.026-2.244-10.121.039-11.461c2.373-1.753,4.632.209,4.557.553" transform="translate(-200.519 380.36)"/></clipPath><clipPath id="cf"><rect class="c" width="61.752" height="30.648"/></clipPath><clipPath id="ch"><path class="c" d="M199-352.352h61.752V-383H199Z" transform="translate(-199 383)"/></clipPath><linearGradient id="ci" x1="0.45" y1="0.404" x2="0.483" y2="0.366" xlink:href="#u"/><clipPath id="cj"><path class="b" d="M186.886-405.3l-2.2,5.258,7.18,2.793,2.337-6.1-7.313-1.948" transform="translate(-184.681 405.302)"/></clipPath><clipPath id="cl"><path class="b" d="M190.49-427.873l7.108,3.262a2.646,2.646,0,0,1,1.312,3.556l-3.36,6.9a2.8,2.8,0,0,1-3.664,1.274l-7.109-3.262a2.646,2.646,0,0,1-1.312-3.556l3.36-6.9a2.8,2.8,0,0,1,3.664-1.274" transform="translate(-183.203 428.128)"/></clipPath><clipPath id="cn"><path class="b" d="M202.31-409.15,201-406.463a2.8,2.8,0,0,1-3.664,1.274L196-405.8l-2.619-6.177.261-.091,1.714,3.178,1.033-2.27-2.466-2.6-.005-.359,3.7,2.823,4.694,2.153" transform="translate(-193.38 414.126)"/></clipPath><clipPath id="cp"><path class="b" d="M198.946-422.762s-.659,1.949-3.1.408-5.107-2.906-6.684-2.645a2.556,2.556,0,0,0-2.018,1.466s-1.372-1.051-1.876-.017.381,1.3.737,1.464l.355.163a23.344,23.344,0,0,1-1.275,3.214c-.343.406-2.686.456-4.065-.88a4.991,4.991,0,0,1-1.305-5.41,11.308,11.308,0,0,1,1.475-3.106s3.111-3.964,7.972-4.125,5.765,1.154,5.765,1.154,3.581,2.064,5.16,4.476-1.144,3.837-1.144,3.837" transform="translate(-179.948 432.375)"/></clipPath><clipPath id="cr"><path class="b" d="M395.2-306.187a.2.2,0,0,1,.136.2.208.208,0,0,1-.214.2l-2.31-.051h-.058a.2.2,0,0,1-.065-.012l-.644-.068-.221-1.654.171-.036.718-.213a.191.191,0,0,1,.046-.014l.013,0v0h.029l1.64.036a.207.207,0,0,1,.2.208.207.207,0,0,1-.214.2l-1.64-.036h-.012v0h.012l2.493.055a.206.206,0,0,1,.2.208.2.2,0,0,1-.145.189l.243.005a.207.207,0,0,1,.2.208.208.208,0,0,1-.214.2h-.036a.2.2,0,0,1,.137.2h0a.207.207,0,0,1-.214.2l-.265-.006" transform="translate(-391.823 307.846)"/></clipPath><clipPath id="ct"><path class="b" d="M164.929-97.466l6.6-.322.767,1.83,9.868-.869-.512,1.914L164.276-92l-.54-3.3,1.193-2.158" transform="translate(-163.736 97.788)"/></clipPath><clipPath id="cv"><path class="b" d="M330.338-332.064l.866-.161,5.241.476,2.557,1.3-1.357,4.351-2.047,2.641-2.446-.319-2.47-1.757.8-.774,1.738-.321,1.6-1.307-3.5-1.037-.921.507-.793-.252.732-3.346" transform="translate(-329.606 332.225)"/></clipPath><clipPath id="cx"><path class="b" d="M314.72-295.077l20.842-1.825.559,6.016-20.842,1.826-.559-6.016" transform="translate(-314.72 296.902)"/></clipPath><clipPath id="cz"><path class="b" d="M317.319-297.449l16.384-1.435,1.86.893-20.842,1.825,2.6-1.284" transform="translate(-314.72 298.884)"/></clipPath><clipPath id="db"><path class="b" d="M333.232-297.051l-.317,1.084.08.828,2.487-.23-.076-.816-.749-.991-1.426.125" transform="translate(-332.915 297.176)"/></clipPath><clipPath id="dd"><path class="b" d="M332.915-294.759l.08.828,2.487-.23-.076-.816-2.492.219" transform="translate(-332.915 294.978)"/></clipPath><clipPath id="df"><path class="b" d="M345.369-285.379a1.439,1.439,0,0,1,1.056.215c-.045,0,.261.062-.137.009s-.662.035-.781.21l.048.518-.175.015-.05-.531a.811.811,0,0,0-.826-.079c-.4.124-.079.008-.117.013a1.5,1.5,0,0,1,.982-.371" transform="translate(-344.3 285.39)"/></clipPath><clipPath id="dh"><path class="b" d="M350.574-285.687l.843-.074.032.338c.007.081-.142.162-.342.192l.031.337.454-.04.006.064-1.038.091-.006-.064.455-.04-.032-.337c-.2.006-.364-.048-.372-.129l-.031-.337" transform="translate(-350.554 285.761)"/></clipPath><clipPath id="dj"><path class="b" d="M343.293-286.086l5.211-.456.123,1.323-5.314.466-.123-1.323Zm5.011-.354-4.9.429.107,1.156,4.9-.43-.108-1.156Z" transform="translate(-343.189 286.542)"/></clipPath><clipPath id="dl"><path class="b" d="M318.564-283.249l5.236-.459.07.753-5.236.459-.07-.753" transform="translate(-318.564 283.708)"/></clipPath><clipPath id="dn"><path class="b" d="M319.255-282.546l.259-.023.055.586-.26.023-.054-.586" transform="translate(-319.255 282.569)"/></clipPath><clipPath id="dp"><path class="b" d="M319.983-282.6l.13-.011.054.585-.13.011-.054-.585" transform="translate(-319.983 282.609)"/></clipPath><clipPath id="dr"><path class="b" d="M320.679-282.661l.13-.011.054.586-.13.011-.054-.585" transform="translate(-320.679 282.672)"/></clipPath><clipPath id="dt"><path class="b" d="M321.375-282.724l.13-.011.054.586-.13.011-.054-.586" transform="translate(-321.375 282.735)"/></clipPath><clipPath id="dv"><path class="b" d="M322.071-282.787l.13-.011.055.586-.129.011-.055-.586" transform="translate(-322.071 282.798)"/></clipPath><clipPath id="dx"><path class="b" d="M322.767-282.849l.13-.012.054.586-.13.011-.055-.585" transform="translate(-322.767 282.861)"/></clipPath><clipPath id="dz"><path class="b" d="M323.464-282.912l.13-.011.054.586-.13.011-.054-.585" transform="translate(-323.464 282.923)"/></clipPath><clipPath id="eb"><path class="b" d="M324.16-282.975l.13-.011.054.586-.13.011-.054-.585" transform="translate(-324.16 282.986)"/></clipPath><clipPath id="ed"><path class="b" d="M324.856-283.048l.225-.02.054.586-.225.02-.055-.586" transform="translate(-324.856 283.068)"/></clipPath><clipPath id="ef"><path class="b" d="M325.572-283.1l.152-.013.055.586-.152.013-.055-.586" transform="translate(-325.572 283.118)"/></clipPath><clipPath id="eh"><path class="b" d="M326.159-283.166l.225-.019.054.585-.225.02-.055-.586" transform="translate(-326.159 283.185)"/></clipPath><clipPath id="ej"><path class="b" d="M327-283.242l.225-.02.054.586-.225.02-.054-.586" transform="translate(-327.005 283.262)"/></clipPath><clipPath id="el"><path class="b" d="M327.784-283.312l.225-.02.054.586-.225.02-.054-.586" transform="translate(-327.784 283.332)"/></clipPath><clipPath id="en"><path class="b" d="M328.66-283.41l.4-.035.055.585-.4.035-.054-.585" transform="translate(-328.66 283.445)"/></clipPath><clipPath id="ep"><path class="b" d="M314.72-310.207l8.165-14.239,3.965.783-1.826,1.7-1.917.315-5.788,10.157-2.6,1.284" transform="translate(-314.72 324.446)"/></clipPath><clipPath id="er"><path class="b" d="M337.607-323.2l1.131.223,8.388,11.66-1.534-.922-8.679-9.037.7-1.924" transform="translate(-336.912 323.204)"/></clipPath><clipPath id="et"><path class="b" d="M379.843-495.787c3.72.289,6.613,2,6.463,3.822s-3.288,3.065-7.007,2.776-6.613-2-6.463-3.822,3.288-3.065,7.007-2.776" transform="translate(-372.83 495.829)"/></clipPath><clipPath id="eu"><path class="c" d="M-31-202.019H338.812V-561H-31Z" transform="translate(31 561)"/></clipPath><clipPath id="ev"><path class="b" d="M321.1-494.774l1.012.3.615-1.966c-1.363-.4-2.709-.788-4.08-1.164l-.575,1.977C319.087-495.35,320.094-495.073,321.1-494.774ZM243.02-459.327l-.893-.551-1.135,1.733a38.4,38.4,0,0,0,3.776,2.071l.946-1.837A29.284,29.284,0,0,1,243.02-459.327Zm7.492,3.178-1.006-.317-.653,1.954c1.365.429,2.7.828,4.075,1.218l.592-1.971C252.51-455.551,251.512-455.835,250.512-456.149Zm8.072,2.1-1.033-.221-.455,2.006c1.415.3,2.765.57,4.19.817l.372-2.022C260.623-453.643,259.61-453.822,258.584-454.044Zm8.22,1.155-1.055-.075-.155,2.048c1.431.1,2.823.183,4.258.241l.089-2.052C268.892-452.77,267.849-452.81,266.8-452.889Zm8.333.114-1.057.046.1,2.052c1.432-.063,2.826-.143,4.256-.247l-.158-2.048C277.226-452.9,276.185-452.82,275.137-452.775Zm8.278-.852-1.042.175.361,2.024c1.423-.24,2.781-.492,4.195-.784l-.441-2.009C285.462-454.008,284.448-453.8,283.414-453.627Zm7.966-2.039-.986.374.77,1.913c1.442-.547,2.57-1.018,3.957-1.685l-.938-1.841C293.232-456.447,292.368-456.037,291.381-455.666Zm6-4.22-.379.959,1.975.736c.159-.4.328-.8.472-1.205l.035-.1.032-.1.03-.106.026-.106.025-.106.021-.107.019-.108.016-.108.014-.109.01-.109.008-.11.005-.109,0-.11v-.111l0-.11-.006-.111-.01-.116-.014-.117-.017-.117-.021-.115-.023-.115-.265-1.067-2.056.483A3.313,3.313,0,0,1,297.38-459.886Zm-3.33-5.711.791.682,1.405-1.535c-1.079-.932-2.127-1.8-3.24-2.7l-1.349,1.582C292.466-466.916,293.267-466.275,294.05-465.6Zm-6.526-5.144.828.64,1.319-1.606c-1.1-.852-2.19-1.7-3.278-2.573l-1.344,1.586C285.871-472.036,286.692-471.384,287.525-470.741Zm-6.462-5.5.737.738,1.519-1.43c-1.015-1.017-1.85-1.9-2.787-2.988l-1.623,1.317C279.619-477.778,280.291-477.008,281.063-476.24Zm-4.79-7.311.249,1,2.056-.483a10.378,10.378,0,0,1-.459-3.8L276-486.87l-.02,1.157,0,.16,0,.159.008.159.012.16.014.158.017.158.02.158.023.157.026.156.029.157.032.155.034.155Zm2.4-8.505-.7.774,1.594,1.351c.3-.332.6-.666.9-1,.634-.676,1.276-1.24,1.974-1.858l-1.427-1.517c-.634.562-1.23,1.087-1.822,1.688l-.151.157-.148.157Zm7.074-5.145-.957.437.9,1.859c1.341-.612,2.428-1.066,3.816-1.571l-.743-1.923C287.716-498.02,286.75-497.664,285.745-497.2Zm8.377-2.422-1.047.152.312,2.031c1.42-.206,2.714-.365,4.144-.5l-.2-2.045C296.246-499.882,295.2-499.782,294.122-499.623Zm8.639-.428-1.057-.041-.085,2.052c1.049.041,2.084.081,3.132.155h0l1.055.08.165-2.048C304.894-499.935,303.837-500.011,302.76-500.052Zm8.546.889-1.042-.174-.359,2.025c1.394.232,2.747.475,4.134.744l.414-2.015c-1.049-.2-2.091-.4-3.146-.579Z" transform="translate(-240.992 500.093)"/></clipPath><clipPath id="ex"><path class="b" d="M236.2-443.545a5.6,5.6,0,0,1,5.24,5.971,5.664,5.664,0,0,1-6.151,5.086,5.6,5.6,0,0,1-5.24-5.971,5.664,5.664,0,0,1,6.151-5.086" transform="translate(-230.03 443.563)"/></clipPath><clipPath id="ez"><path class="b" d="M388.515-522.5l-6.99,17.452-3.616-18.276,10.606.824" transform="translate(-377.909 523.328)"/></clipPath><clipPath id="fb"><path class="b" d="M387.267-516.689l-4.25,10.61-2.2-11.112,6.449.5" transform="translate(-380.818 517.19)"/></clipPath><clipPath id="fd"><path class="b" d="M383.626-531.268a5.214,5.214,0,0,1,4.879,5.56,5.274,5.274,0,0,1-5.727,4.735,5.214,5.214,0,0,1-4.879-5.56,5.274,5.274,0,0,1,5.728-4.736" transform="translate(-377.881 531.285)"/></clipPath><clipPath id="ff"><path class="b" d="M384.709-528.046a3.267,3.267,0,0,1,3.058,3.484,3.305,3.305,0,0,1-3.59,2.968,3.268,3.268,0,0,1-3.058-3.485,3.3,3.3,0,0,1,3.59-2.967" transform="translate(-381.109 528.057)"/></clipPath><clipPath id="fh"><path class="k" d="M400.347-374.2,373.4-358.066l-22.94-22.311-1.166,2.877S374.82-348.444,376-348.069s29.266-9.229,33.307-12.607,6.434-11.371,4.189-13.775c-2.894-3.853-9.057-1.213-13.15.252" transform="translate(-349.292 380.377)"/></clipPath><clipPath id="fi"><path class="l" d="M-31-290.129H248.043V-561H-31Z" transform="translate(31 561)"/></clipPath><clipPath id="fj"><path class="b" d="M483.717-386.172l-.339,5.979-8.593,2.629,1.053-9.95,7.879,1.342" transform="translate(-474.785 387.514)"/></clipPath><clipPath id="fl"><path class="b" d="M482.111-410.032h-8.293a2.869,2.869,0,0,0-2.9,2.818v8.05a2.869,2.869,0,0,0,2.9,2.817h8.293a2.87,2.87,0,0,0,2.9-2.817v-8.05a2.87,2.87,0,0,0-2.9-2.818" transform="translate(-470.915 410.032)"/></clipPath><clipPath id="fn"><path class="b" d="M470.915-394.18v3.134a2.869,2.869,0,0,0,2.9,2.817h1.562l5.365-4.744-.207-.2-3.11,2.281.069-2.616,3.56-1.4.172-.34-4.838,1.074h-5.476" transform="translate(-470.915 395.254)"/></clipPath><clipPath id="fp"><path class="b" d="M465.843-410.7s-.277,2.147,2.764,1.744,6.22-.537,7.6.4a2.607,2.607,0,0,1,1.244,2.281s1.8-.4,1.8.8-.968,1.074-1.382,1.074h-.415a24.407,24.407,0,0,0-.277,3.623c.138.536,2.35,1.61,4.285.939s3.041-2.549,2.35-5.233l-.691-2.683s2.35-4.964-2.211-7.245-6.5-.134-6.5-.134-5.252-1.341-7.879.269-.691,4.159-.691,4.159" transform="translate(-465.156 416.04)"/></clipPath><clipPath id="fr"><path class="b" d="M467.574-258.642,460-215.509l7.069,48.524h-5.05l-13.128-43.133,1.572-48.078,17.111-.447" transform="translate(-448.891 258.642)"/></clipPath><clipPath id="ft"><path class="b" d="M480.225-263.487l-.218,6.706-5.18,39.048,6.511,48.586h-5.05L463.16-212.28l-2.524-45.583,19.589-5.624" transform="translate(-460.636 263.487)"/></clipPath><clipPath id="fv"><path class="m" d="M459.062-371.05c-.457-.187-.594-1.552-1.067-1.491q-.747.1-1.458.241c-8.237,6.258-9.892,12.505-13.264,26.186l4.094,28.166s2.707,7.638,13.314,6.691,10.123-6.57,10.123-6.57,1.156-51.165.046-53.188c-.639-1.163-3.867-2.428-6.288-1.693-4.109,1.248-3.184,2.607-5.5,1.659" transform="translate(-443.274 372.926)"/></clipPath><clipPath id="fw"><path class="n" d="M-31-290.129H248.043V-561H-31Z" transform="translate(31 561)"/></clipPath><clipPath id="fx"><path class="b" d="M479.389-59.059l-.662,3.226-12.833,2.39.014,1.61,12.854-.109.959-.947.7.665,4.838-.041.25-2.954-1.97-3.874-4.146.035" transform="translate(-465.894 59.094)"/></clipPath><clipPath id="fz"><path class="b" d="M461.164-65.276,460.5-62.05l-12.833,2.39.014,1.61,12.854-.109.959-.947.7.665,4.837-.041.25-2.954-1.97-3.874-4.146.035" transform="translate(-447.669 65.311)"/></clipPath><clipPath id="gb"><path class="o" d="M408.316-361.972,393.3-339.039l-39.57,7.548.329,3.075s45.065-2.715,46.293-2.911,23.634-25.182,25.62-29.986-1.7-9.054-4.838-10.185c-4.4-2.128-9.873,6.4-12.812,9.527" transform="translate(-353.725 371.836)"/></clipPath><clipPath id="gc"><path class="p" d="M-31-290.129H248.043V-561H-31Z" transform="translate(31 561)"/></clipPath><clipPath id="gd"><path class="b" d="M317.973-406.984l6.374-1.754,4.24,14.094-6.374,1.754-4.24-14.095" transform="translate(-317.973 408.738)"/></clipPath><clipPath id="gf"><path class="b" d="M319.275-405.95l3.967,13.188,5.438-1.5-3.967-13.188-5.438,1.5" transform="translate(-319.275 407.447)"/></clipPath><clipPath id="gh"><path class="b" d="M328.9-394.874a2.444,2.444,0,0,1-1.672,3.071,2.545,2.545,0,0,1-3.164-1.623,2.445,2.445,0,0,1,1.672-3.071,2.545,2.545,0,0,1,3.164,1.623" transform="translate(-323.953 396.607)"/></clipPath><clipPath id="gj"><path class="b" d="M326.169-391.952l.294-.088a1.071,1.071,0,0,1-.012-.376.63.63,0,0,1,.156-.3.865.865,0,0,1,.351-.229l.148.268a.773.773,0,0,0-.312.222.426.426,0,0,0-.084.34l.922-.276a1.521,1.521,0,0,1,.039-.4.54.54,0,0,1,.15-.274.677.677,0,0,1,.292-.168.69.69,0,0,1,.576.063.786.786,0,0,1,.3.379l.14-.042.053.169-.14.042a.708.708,0,0,1-.026.438.7.7,0,0,1-.369.355l-.139-.278a.528.528,0,0,0,.234-.185.392.392,0,0,0,.053-.256l-.846.253a2.3,2.3,0,0,1,0,.311.7.7,0,0,1-.078.26.6.6,0,0,1-.164.191.742.742,0,0,1-.243.122.762.762,0,0,1-.568-.036.728.728,0,0,1-.373-.421l-.3.089Zm2.571-.77a.439.439,0,0,0-.221-.22.412.412,0,0,0-.293-.017.4.4,0,0,0-.226.156.528.528,0,0,0-.066.321Zm-1.976.777a.446.446,0,0,0,.236.23.5.5,0,0,0,.349.014.413.413,0,0,0,.233-.154.6.6,0,0,0,.06-.353l-.877.263Z" transform="translate(-326.169 393.272)"/></clipPath><clipPath id="gl"><path class="b" d="M309.9-403.77l5.724-3.239,7.72,12.627-5.724,3.239L309.9-403.77" transform="translate(-309.902 407.009)"/></clipPath><clipPath id="gn"><path class="b" d="M311.343-402.817,318.567-391l4.883-2.763-7.224-11.814-4.883,2.763" transform="translate(-311.343 405.58)"/></clipPath><clipPath id="gp"><path class="b" d="M323.617-393.687a2.415,2.415,0,0,1-.832,3.378,2.575,2.575,0,0,1-3.48-.808,2.415,2.415,0,0,1,.832-3.378,2.575,2.575,0,0,1,3.48.808" transform="translate(-318.931 394.858)"/></clipPath><clipPath id="gr"><path class="b" d="M321.45-390.037l.262-.156a1.082,1.082,0,0,1-.108-.362.624.624,0,0,1,.074-.328.843.843,0,0,1,.281-.306l.212.224a.755.755,0,0,0-.245.29.424.424,0,0,0,.006.35l.822-.49a1.53,1.53,0,0,1-.066-.4.538.538,0,0,1,.075-.3.663.663,0,0,1,.24-.233.69.69,0,0,1,.574-.078.8.8,0,0,1,.383.3l.125-.074.1.15-.125.075a.71.71,0,0,1,.087.43.68.68,0,0,1-.267.433l-.206-.235a.515.515,0,0,0,.179-.236.391.391,0,0,0-.014-.26l-.754.45a2.433,2.433,0,0,1,.082.3.7.7,0,0,1-.009.271.589.589,0,0,1-.11.224.733.733,0,0,1-.2.177.761.761,0,0,1-.559.1.745.745,0,0,1-.469-.318l-.265.158Zm2.293-1.367a.45.45,0,0,0-.27-.16.409.409,0,0,0-.288.055.388.388,0,0,0-.178.205.525.525,0,0,0,.019.327Zm-1.715,1.229a.456.456,0,0,0,.287.165.494.494,0,0,0,.342-.071.4.4,0,0,0,.186-.205.6.6,0,0,0-.032-.357l-.782.467Z" transform="translate(-321.45 391.86)"/></clipPath><clipPath id="gt"><path class="b" d="M302.656-395.689l4.308-4.886,11.569,9.458-4.308,4.886-11.57-9.459" transform="translate(-302.656 400.575)"/></clipPath><clipPath id="gv"><path class="b" d="M304.139-394.936l10.826,8.85,3.675-4.168-10.825-8.85-3.675,4.168" transform="translate(-304.139 399.104)"/></clipPath><clipPath id="gx"><path class="b" d="M318.436-389.557a2.407,2.407,0,0,1,.359,3.456,2.582,2.582,0,0,1-3.56.348,2.407,2.407,0,0,1-.359-3.456,2.583,2.583,0,0,1,3.56-.349" transform="translate(-314.306 390.111)"/></clipPath><clipPath id="gz"><path class="b" d="M317.422-385.084l.195-.232a1.09,1.09,0,0,1-.224-.307.618.618,0,0,1-.041-.333.822.822,0,0,1,.162-.379l.276.144a.75.75,0,0,0-.133.352.428.428,0,0,0,.125.329l.61-.725a1.576,1.576,0,0,1-.2-.358.536.536,0,0,1-.032-.309.645.645,0,0,1,.147-.3.68.68,0,0,1,.515-.257.821.821,0,0,1,.462.157l.093-.11.141.112-.093.11a.73.73,0,0,1,.228.379.668.668,0,0,1-.1.494l-.274-.156a.508.508,0,0,0,.089-.28.4.4,0,0,0-.1-.242l-.56.665a2.478,2.478,0,0,1,.179.257.712.712,0,0,1,.083.259.579.579,0,0,1-.028.247.711.711,0,0,1-.133.233.746.746,0,0,1-.494.275.756.756,0,0,1-.55-.15l-.2.234Zm1.7-2.023a.464.464,0,0,0-.309-.064.4.4,0,0,0-.253.143.381.381,0,0,0-.1.251.534.534,0,0,0,.129.3Zm-1.2,1.709a.461.461,0,0,0,.327.065.484.484,0,0,0,.3-.176.393.393,0,0,0,.106-.253.6.6,0,0,0-.151-.326l-.581.69Z" transform="translate(-317.346 387.456)"/></clipPath><clipPath id="hb"><path class="b" d="M330.551-392.681l.941,3.161s-2.623-.772-3.817-1.088-1.718,1.159.018,1.843,3.69.826,3.889,1.721.56,1.966,1.718,2a14.054,14.054,0,0,1,3.618,1.194l1.7-3.3a17.483,17.483,0,0,1-3.979-3.723c-1.23-1.861-4.088-1.809-4.088-1.809" transform="translate(-326.576 392.681)"/></clipPath><clipPath id="hd"><path class="b" d="M337.676-279.917l-.958.1s-9.7-.1-10.176-.1a16.46,16.46,0,0,1-4.549-1.394c-.81-.581-.541-.581-.541-.581h9.368a27.12,27.12,0,0,1,3.744-1.046,3.629,3.629,0,0,1,1.85.267l1.263,2.754" transform="translate(-321.409 282.961)"/></clipPath></defs><g class="q"><g transform="translate(0 14)"><path class="a" d="M-19941.512-16639.514c23-1.92,47.652-21.914,69.174-33.967,9.859-5.523,19.73-8.672,27.318-8.539,22.721,0,48.941,9.879,51.65,31.025,0,11.035-2.855,14.475-10.586,36.592s-21.029,26.844-20.334,51.879c-1.832,26.172,30,63.135,20.334,95.3s-44.785,38.688-59.016,33.369c-2.99-1.117-8.982-2.566-14.166-10.227-7.549-11.16-7.662-28.881-29.545-39.314-6.779-3.977-16.1-7.775-26.111-7.893-13.682-.162-28,4.7-32.686,5.707-5.43,1.17-18.631,2.076-34.734,2.186-10.533.07-22.662.359-33.961-2.186-23.58-5.311-44-20.139-47.041-36.955-2.871-15.871-.244-31.383,6.2-42.424,8.033-13.775,16.389-18.717,22.24-30.449,1.906-3.623,3-9.465,1.168-17.379-2.229-9.621-8.047-22.748-7.408-34.156.488-8.729,5.158-15.158,10.018-19.678,7.717-7.178,19.152-8.74,30.607-3.463,8.742,4.023,12.385,14.184,29.678,24.033S-19949.631-16638.836-19941.512-16639.514Z" transform="translate(20130 16796)"/><circle class="r" cx="21" cy="21" r="21" transform="translate(174 97)"/><circle class="r" cx="5" cy="5" r="5" transform="translate(225 88)"/><circle class="a" cx="5" cy="5" r="5" transform="translate(347 225)"/><circle class="a" cx="5" cy="5" r="5" transform="translate(19 177)"/><circle class="r" cx="12" cy="12" r="12" transform="translate(139 91)"/><circle class="a" cx="12" cy="12" r="12" transform="translate(21 211)"/><circle class="r" cx="12" cy="12" r="12" transform="translate(124 333)"/><circle class="r" cx="22" cy="22" r="22" transform="translate(173 323)"/></g><g transform="translate(0 14)"><g transform="translate(72.42 634.075)"><g class="s" transform="translate(-9.789 -362.898)"><g class="t" transform="translate(-14.653 -191.928)"><path class="u" d="M-4.44-140.156H181.682v65.01H-4.44Z" transform="translate(16.772 329.83)"/></g></g><g class="v" transform="translate(-3.504 -523.904)"><g class="t" transform="translate(-20.938 -30.921)"><path class="w" d="M9.1-497.393H80.1v205.525H9.1Z" transform="translate(9.521 526.061)"/></g></g><g class="x" transform="translate(0.688 -524.8)"><g class="y" transform="translate(-25.13 -30.026)"><path class="a" d="M18.125-499.379H91.34V-290.3H18.125Z" transform="translate(4.684 527.152)"/></g></g><g class="z" transform="translate(1.949 -522.976)"><g class="aa" transform="translate(-26.392 -31.85)"><path class="ab" d="M20.842-495.332H91.849v205.525H20.842Z" transform="translate(3.228 524.928)"/></g></g><path class="ad" d="M35-478.467q16.141,1.368,30.862,2.651l27.069,2.342c.439.037.8.643.8,1.359q-.226,41.833-.457,83.057-.222,40.973-.449,81.426a1.624,1.624,0,0,1-.793,1.5l-26.565,8.444q-14.445,4.591-30.2,9.62c-.557.178-1.016-.333-1.017-1.111q-.072-46.1-.137-92.9-.073-47.115-.141-95.008c0-.819.464-1.433,1.033-1.385" transform="translate(-28.244 -39.16)"/><g class="ag" transform="translate(79.428 -470.209)"><g class="t" transform="translate(-103.87 -84.617)"><g class="ae" transform="translate(103.074 83.83)"><g class="ah"><g class="ag" transform="translate(0.796 0.787)"><g class="ai" transform="translate(-0.796 -0.787)"><g transform="translate(-88.681 -70.76)"><path class="aj" d="M-192.714-158.745H44.542V81.027H-192.714Z" transform="translate(192.714 158.745)"/></g></g></g></g></g></g></g><g class="ak" transform="translate(104.15 -426.135)"><g class="t" transform="translate(-128.592 -128.691)"><path class="al" d="M240.961-280.465h12.588v12.679H240.961Z" transform="translate(-114.69 406.902)"/></g></g><g class="am" transform="translate(92.642 -415.472)"><g class="t" transform="translate(-117.084 -139.354)"><path class="an" d="M216.175-256.8h22.567v14.669H216.175Z" transform="translate(-101.412 393.906)"/></g></g><g class="ao" transform="translate(94.318 -415.581)"><g class="t" transform="translate(-118.76 -139.245)"><path class="ap" d="M219.785-257.047h20.891v10.088H219.785Z" transform="translate(-103.346 394.039)"/></g></g><g class="aq" transform="translate(100.675 -413.961)"><g class="t" transform="translate(-125.118 -140.864)"><path class="ar" d="M233.477-253.454h6.814v6.5h-6.814Z" transform="translate(-110.681 392.065)"/></g></g><g class="as" transform="translate(100.675 -413.254)"><g class="t" transform="translate(-125.118 -141.572)"><path class="at" d="M233.477-251.884h6.814v5.8h-6.814Z" transform="translate(-110.681 391.203)"/></g></g><g class="au" transform="translate(103.286 -408.189)"><g class="t" transform="translate(-127.728 -146.637)"><path class="av" d="M239.1-240.647h6.347v5.384H239.1Z" transform="translate(-113.693 385.03)"/></g></g><g class="aw" transform="translate(105.33 -407.556)"><g class="t" transform="translate(-129.773 -147.27)"><path class="av" d="M243.5-239.242h5.626v5.455H243.5Z" transform="translate(-116.052 384.258)"/></g></g><g class="ax" transform="translate(102.698 -408.655)"><g class="t" transform="translate(-127.14 -146.171)"><path class="av" d="M237.833-241.681h9.155v6.934h-9.155Z" transform="translate(-113.014 385.598)"/></g></g><g class="ay" transform="translate(93.85 -411.455)"><g class="t" transform="translate(-118.292 -143.37)"><path class="a" d="M218.777-247.894h8.935v6.469h-8.935Z" transform="translate(-102.806 389.011)"/></g></g><g class="az" transform="translate(94.11 -411.292)"><g class="t" transform="translate(-118.552 -143.534)"><path d="M219.337-247.532h5.008v5.032h-5.008Z" transform="translate(-103.106 388.812)"/></g></g><g class="ba" transform="translate(94.374 -411.203)"><g class="t" transform="translate(-118.816 -143.622)"><path d="M219.9-247.335h4.907v5H219.9Z" transform="translate(-103.41 388.704)"/></g></g><g class="bb" transform="translate(94.626 -411.119)"><g class="t" transform="translate(-119.068 -143.707)"><path d="M220.447-247.147h4.907v5h-4.907Z" transform="translate(-103.701 388.601)"/></g></g><g class="bc" transform="translate(94.878 -411.034)"><g class="t" transform="translate(-119.32 -143.792)"><path d="M220.99-246.959H225.9v5H220.99Z" transform="translate(-103.992 388.497)"/></g></g><g class="bd" transform="translate(95.129 -410.949)"><g class="t" transform="translate(-119.571 -143.877)"><path d="M221.532-246.77h4.907v5h-4.907Z" transform="translate(-104.282 388.393)"/></g></g><g class="be" transform="translate(95.382 -410.864)"><g class="t" transform="translate(-119.824 -143.962)"><path d="M222.075-246.582h4.907v5h-4.907Z" transform="translate(-104.573 388.29)"/></g></g><g class="bf" transform="translate(95.634 -410.779)"><g class="t" transform="translate(-120.076 -144.046)"><path d="M222.618-246.394h4.907v5h-4.907Z" transform="translate(-104.864 388.187)"/></g></g><g class="bg" transform="translate(95.886 -410.694)"><g class="t" transform="translate(-120.328 -144.132)"><path d="M223.161-246.205h4.907v5h-4.907Z" transform="translate(-105.155 388.083)"/></g></g><g class="bh" transform="translate(96.137 -410.609)"><g class="t" transform="translate(-120.579 -144.216)"><path d="M223.7-246.017h4.981v5.023H223.7Z" transform="translate(-105.445 387.98)"/></g></g><g class="bi" transform="translate(96.397 -410.522)"><g class="t" transform="translate(-120.839 -144.304)"><path d="M224.262-245.823h4.924v5h-4.924Z" transform="translate(-105.744 387.873)"/></g></g><g class="bj" transform="translate(96.609 -410.45)"><g class="t" transform="translate(-121.051 -144.375)"><path d="M224.719-245.664H229.7v5.023h-4.981Z" transform="translate(-105.989 387.786)"/></g></g><g class="bk" transform="translate(96.915 -410.348)"><g class="t" transform="translate(-121.357 -144.478)"><path d="M225.378-245.436h4.981v5.023h-4.981Z" transform="translate(-106.342 387.661)"/></g></g><g class="bl" transform="translate(97.197 -410.253)"><g class="t" transform="translate(-121.639 -144.573)"><path d="M225.985-245.225h4.982v5.023h-4.982Z" transform="translate(-106.667 387.545)"/></g></g><g class="bm" transform="translate(97.514 -410.146)"><g class="t" transform="translate(-121.957 -144.68)"><path d="M226.669-244.988h5.12v5.069h-5.12Z" transform="translate(-107.034 387.415)"/></g></g><g class="bn" transform="translate(94.318 -423.458)"><g class="t" transform="translate(-118.76 -131.367)"><path class="bo" d="M219.785-274.526H238.2v12.494H219.785Z" transform="translate(-103.346 403.64)"/></g></g><g class="bp" transform="translate(106.13 -422.109)"><g class="t" transform="translate(-130.573 -132.717)"><path class="bo" d="M245.226-271.532h8.824V-255h-8.824Z" transform="translate(-116.975 401.995)"/></g></g><path class="bq" d="M125.457-269.715,105.77-257v-16.142l14.9-17.323.046.2s14.526.434,16.034,5.444-12.024,7.773-11.292,8.652" transform="translate(-66.712 -142.431)"/><path class="c" d="M-31-290.129H248.043V-561H-31Z" transform="translate(6.559 6.174)"/><g transform="translate(-24.442 -554.826)"><g class="t" transform="translate(0 0)"><g class="ae" transform="translate(75.681 121.689)"><g class="br"><g class="bs" transform="translate(1.146 0.048)"><g class="bt" transform="translate(-1.146 -0.048)"><g transform="translate(-61.287 -108.619)"><path class="i" d="M-134.469-241.107H102.787V-1.335H-134.469Z" transform="translate(134.469 241.107)"/></g></g></g></g></g></g></g><g class="bu" transform="translate(53.463 -480.099)"><g class="t" transform="translate(-77.905 -74.727)"><g class="ae" transform="translate(75.681 73.915)"><g class="bv" transform="translate(0)"><g class="bu" transform="translate(2.225 0.812)"><g class="bw" transform="translate(-2.225 -0.812)"><g transform="translate(-61.287 -60.845)"><path class="bx" d="M-136.791-136.8H100.465V102.971H-136.791Z" transform="translate(136.791 136.801)"/></g></g></g></g></g></g></g><g class="by" transform="translate(83.051 -473.411)"><g class="t" transform="translate(-107.494 -81.415)"><g class="ae" transform="translate(106.788 80.225)"><g class="bz"><g class="by" transform="translate(0.705 1.19)"><g class="ca" transform="translate(-0.705 -1.19)"><g transform="translate(-92.395 -67.154)"><path class="cb" d="M-200.519-151.64H36.737V88.132H-200.519Z" transform="translate(200.519 151.64)"/></g></g></g></g></g></g></g><g class="cc" transform="translate(75.698 -484.653)"><g class="t" transform="translate(-100.14 -70.173)"><path class="cd" d="M179.681-410.3h14.161v12.559H179.681Z" transform="translate(-81.862 478.222)"/></g></g><g class="ce" transform="translate(75.012 -494.94)"><g class="t" transform="translate(-99.454 -59.885)"><path class="al" d="M178.2-433.128h20.613v20.009H178.2Z" transform="translate(-81.07 490.76)"/></g></g><g class="cf" transform="translate(79.737 -488.63)"><g class="t" transform="translate(-104.179 -66.196)"><path class="cg" d="M188.38-419.126h13.573v13.7H188.38Z" transform="translate(-86.522 483.069)"/></g></g><g class="ch" transform="translate(73.501 -496.854)"><g class="t" transform="translate(-97.943 -57.971)"><path d="M174.948-437.375h25.277v18.425H174.948Z" transform="translate(-79.327 493.093)"/></g></g><g class="ci" transform="translate(171.874 -440.729)"><g class="t" transform="translate(-196.316 -114.096)"><path class="al" d="M386.823-312.846h8.61v6.56h-8.61Z" transform="translate(-192.829 424.689)"/></g></g><g class="cj" transform="translate(71.359 -346.056)"><g class="t" transform="translate(-90.415 -208.77)"><path d="M158.736-102.788h23.073V-92.5H158.736Z" transform="translate(-70.642 309.304)"/></g></g><g class="ck" transform="translate(142.986 -451.717)"><g class="t" transform="translate(-167.428 -103.109)"><path class="al" d="M324.606-337.225h14.039v13.274H324.606Z" transform="translate(-159.499 438.08)"/></g></g><g class="cl" transform="translate(136.075 -435.797)"><g class="t" transform="translate(-160.517 -119.029)"><path class="an" d="M309.72-301.9h26.044v12.348H309.72Z" transform="translate(-151.524 418.677)"/></g></g><g class="cm" transform="translate(136.075 -436.69)"><g class="t" transform="translate(-160.517 -118.136)"><path class="ap" d="M309.72-303.884h25.485v7.226H309.72Z" transform="translate(-151.524 419.766)"/></g></g><g class="cn" transform="translate(144.523 -435.92)"><g class="t" transform="translate(-168.965 -118.905)"><path class="ar" d="M327.915-302.176h7.211v6.544h-7.211Z" transform="translate(-161.272 418.828)"/></g></g><g class="co" transform="translate(144.523 -434.93)"><g class="t" transform="translate(-168.965 -119.896)"><path class="at" d="M327.915-299.978h7.211v5.554h-7.211Z" transform="translate(-161.272 417.621)"/></g></g><g class="cp" transform="translate(149.809 -430.608)"><g class="t" transform="translate(-174.251 -124.218)"><path class="av" d="M339.3-290.39h6.839v5.485H339.3Z" transform="translate(-167.37 412.354)"/></g></g><g class="cq" transform="translate(152.712 -430.776)"><g class="t" transform="translate(-177.155 -124.05)"><path class="av" d="M345.554-290.761h5.687v5.489h-5.687Z" transform="translate(-170.721 412.558)"/></g></g><g class="cr" transform="translate(149.293 -431.128)"><g class="t" transform="translate(-173.735 -123.698)"><path class="av" d="M338.189-291.542h10.08v6.3h-10.08Z" transform="translate(-166.775 412.987)"/></g></g><g class="cs" transform="translate(137.86 -429.85)"><g class="t" transform="translate(-162.302 -124.975)"><path class="a" d="M313.564-288.708h9.949v5.719h-9.949Z" transform="translate(-153.584 411.43)"/></g></g><g class="ct" transform="translate(138.18 -429.337)"><g class="t" transform="translate(-162.623 -125.489)"><path d="M314.255-287.569h4.957v5.115h-4.957Z" transform="translate(-153.954 410.804)"/></g></g><g class="cu" transform="translate(138.518 -429.355)"><g class="t" transform="translate(-162.961 -125.471)"><path d="M314.983-287.609h4.827v5.1h-4.827Z" transform="translate(-154.344 410.826)"/></g></g><g class="cv" transform="translate(138.842 -429.383)"><g class="t" transform="translate(-163.284 -125.442)"><path d="M315.679-287.672h4.827v5.1h-4.827Z" transform="translate(-154.717 410.861)"/></g></g><g class="cw" transform="translate(139.165 -429.412)"><g class="t" transform="translate(-163.607 -125.414)"><path d="M316.375-287.735H321.2v5.1h-4.827Z" transform="translate(-155.09 410.896)"/></g></g><g class="cx" transform="translate(139.488 -429.44)"><g class="t" transform="translate(-163.93 -125.386)"><path d="M317.071-287.8H321.9v5.1h-4.827Z" transform="translate(-155.462 410.93)"/></g></g><g class="cy" transform="translate(139.811 -429.469)"><g class="t" transform="translate(-164.253 -125.357)"><path d="M317.767-287.861h4.827v5.1h-4.827Z" transform="translate(-155.835 410.965)"/></g></g><g class="cz" transform="translate(140.135 -429.496)"><g class="t" transform="translate(-164.577 -125.329)"><path d="M318.464-287.923h4.827v5.1h-4.827Z" transform="translate(-156.209 410.999)"/></g></g><g class="da" transform="translate(140.458 -429.525)"><g class="t" transform="translate(-164.9 -125.301)"><path d="M319.16-287.986h4.827v5.1H319.16Z" transform="translate(-156.582 411.033)"/></g></g><g class="db" transform="translate(140.781 -429.562)"><g class="t" transform="translate(-165.223 -125.264)"><path d="M319.856-288.068h4.923v5.113h-4.923Z" transform="translate(-156.954 411.078)"/></g></g><g class="dc" transform="translate(141.113 -429.584)"><g class="t" transform="translate(-165.556 -125.241)"><path d="M320.572-288.118h4.85v5.106h-4.85Z" transform="translate(-157.338 411.106)"/></g></g><g class="dd" transform="translate(141.386 -429.615)"><g class="t" transform="translate(-165.828 -125.211)"><path d="M321.159-288.185h4.922v5.112h-4.922Z" transform="translate(-157.652 411.143)"/></g></g><g class="de" transform="translate(141.779 -429.649)"><g class="t" transform="translate(-166.221 -125.177)"><path d="M322.005-288.262h4.922v5.113h-4.922Z" transform="translate(-158.106 411.185)"/></g></g><g class="df" transform="translate(142.14 -429.681)"><g class="t" transform="translate(-166.583 -125.145)"><path d="M322.784-288.332h4.922v5.113h-4.922Z" transform="translate(-158.523 411.223)"/></g></g><g class="dg" transform="translate(142.547 -429.732)"><g class="t" transform="translate(-166.989 -125.094)"><path d="M323.66-288.445h5.1v5.128h-5.1Z" transform="translate(-158.992 411.286)"/></g></g><g class="dh" transform="translate(136.075 -448.211)"><g class="t" transform="translate(-160.517 -106.615)"><path class="bo" d="M309.72-329.446h16.772V-310.7H309.72Z" transform="translate(-151.524 433.807)"/></g></g><g class="di" transform="translate(146.379 -447.651)"><g class="t" transform="translate(-170.821 -107.175)"><path class="bo" d="M331.912-328.2h14.856v16.39H331.912Z" transform="translate(-163.413 433.125)"/></g></g><g transform="translate(15.342 -32.703)"><g class="dj" transform="translate(184.621 -520.255)"><g class="dk" transform="translate(-248.488 -38.927)"><path class="dl" d="M367.83-500.829h19.635v12.654H367.83Z" transform="translate(-122.419 536.77)"/></g></g><g class="dm" transform="translate(103.499 -522.802)"><g class="dk" transform="translate(-167.364 -36.38)"><path class="u" d="M235.992-505.093h87.889V-449.7H235.992Z" transform="translate(-71.705 538.487)"/></g></g><g class="dn" transform="translate(96.754 -489.037)"><g class="dk" transform="translate(-160.619 -70.146)"><path class="dl" d="M225.03-448.563h17.581V-431.5H225.03Z" transform="translate(-67.488 515.723)"/></g></g><g class="do" transform="translate(187.748 -536.68)"><g class="dk" transform="translate(-251.613 -22.502)"><path class="u" d="M372.909-528.328h16.76v24.249h-16.76Z" transform="translate(-124.373 547.843)"/></g></g><g class="dp" transform="translate(189.537 -533.015)"><g class="dk" transform="translate(-253.403 -26.168)"><path class="dq" d="M375.818-522.19h12.6v17.085h-12.6Z" transform="translate(-125.492 545.372)"/></g></g><g class="dr" transform="translate(187.73 -541.434)"><g class="dk" transform="translate(-251.596 -17.749)"><path class="u" d="M372.881-536.285h16.794v16.3H372.881Z" transform="translate(-124.362 551.047)"/></g></g><g class="ds" transform="translate(189.716 -539.505)"><g class="dk" transform="translate(-253.582 -19.677)"><path class="dq" d="M376.108-533.057h12.822v12.446H376.108Z" transform="translate(-125.603 549.747)"/></g></g></g><g class="dt" transform="translate(152.127 -473.419)"><g class="du" transform="translate(-176.569 -81.407)"><path class="l" d="M344.292-385.377H414v36.825H344.292Z" transform="translate(-170.045 464.53)"/></g></g><g class="dv" transform="translate(210.393 -476.636)"><g class="t" transform="translate(-234.835 -78.19)"><path class="cd" d="M469.785-392.514H483.36v14.457H469.785Z" transform="translate(-237.272 468.451)"/></g></g><g class="dw" transform="translate(208.596 -486.785)"><g class="t" transform="translate(-233.038 -68.041)"><path class="al" d="M465.915-415.032h18.741v18.193H465.915Z" transform="translate(-235.199 480.82)"/></g></g><g class="dx" transform="translate(208.596 -480.124)"><g class="t" transform="translate(-233.038 -74.702)"><path class="cg" d="M465.915-400.254h14.957v11.532H465.915Z" transform="translate(-235.199 472.702)"/></g></g><g class="dy" transform="translate(205.922 -489.492)"><g class="t" transform="translate(-230.364 -65.333)"><path d="M460.156-421.04h23.5v20.932h-23.5Z" transform="translate(-232.113 484.12)"/></g></g><g class="dz" transform="translate(198.37 -418.553)"><g class="t" transform="translate(-222.812 -136.273)"><path class="ea" d="M443.891-263.642h23.326v96.164H443.891Z" transform="translate(-223.4 397.661)"/></g></g><g class="eb" transform="translate(203.823 -420.737)"><g class="t" transform="translate(-228.265 -134.089)"><path class="i" d="M455.636-268.487h25.345v98.847H455.636Z" transform="translate(-229.692 400.323)"/></g></g><g class="ec" transform="translate(195.762 -470.061)"><g class="ed" transform="translate(-220.204 -84.765)"><path class="n" d="M438.274-377.926h32.7v66.258h-32.7Z" transform="translate(-220.391 460.438)"/></g></g><g class="ee" transform="translate(206.265 -328.617)"><g class="t" transform="translate(-230.707 -226.209)"><path d="M460.894-64.094h24.254v11.768H460.894Z" transform="translate(-232.509 288.05)"/></g></g><g class="ef" transform="translate(197.803 -331.419)"><g class="t" transform="translate(-222.245 -223.407)"><path d="M442.669-70.311h24.255v11.768H442.669Z" transform="translate(-222.746 291.465)"/></g></g><g class="eg" transform="translate(154.185 -469.569)"><g class="eh" transform="translate(-178.627 -85.256)"><path class="p" d="M348.725-376.836h77.446v47.927H348.725Z" transform="translate(-172.42 459.839)"/></g></g><g class="ei" transform="translate(137.585 -486.201)"><g class="t" transform="translate(-162.027 -68.624)"><path class="ej" d="M312.973-413.738H328.23v20.355H312.973Z" transform="translate(-153.267 480.109)"/></g></g><g class="ek" transform="translate(138.19 -485.619)"><g class="t" transform="translate(-162.632 -69.206)"><path class="el" d="M314.275-412.447h14.048v19.191H314.275Z" transform="translate(-153.965 479.4)"/></g></g><g class="em" transform="translate(140.362 -480.734)"><g class="t" transform="translate(-164.804 -74.092)"><path class="en" d="M318.953-401.607h9.7v9.421h-9.7Z" transform="translate(-156.47 473.446)"/></g></g><g class="eo" transform="translate(141.391 -479.231)"><g class="t" transform="translate(-165.833 -75.595)"><path class="ej" d="M321.169-398.272h7.651v6.4h-7.651Z" transform="translate(-157.658 471.614)"/></g></g><g class="ep" transform="translate(133.838 -485.422)"><g class="t" transform="translate(-158.28 -69.404)"><path class="ej" d="M304.9-412.009H322.99v20.373H304.9Z" transform="translate(-148.944 479.159)"/></g></g><g class="eq" transform="translate(134.507 -484.778)"><g class="t" transform="translate(-158.949 -70.048)"><path class="el" d="M306.343-410.58h16.75V-391.5h-16.75Z" transform="translate(-149.715 478.374)"/></g></g><g class="er" transform="translate(138.03 -479.946)"><g class="t" transform="translate(-162.472 -74.88)"><path class="en" d="M313.931-399.858h9.7v9.42h-9.7Z" transform="translate(-153.78 472.485)"/></g></g><g class="es" transform="translate(139.2 -478.594)"><g class="t" transform="translate(-163.642 -76.232)"><path class="ej" d="M316.45-396.86h7.373v6.655H316.45Z" transform="translate(-155.13 470.838)"/></g></g><g class="et" transform="translate(130.474 -482.522)"><g class="t" transform="translate(-154.916 -72.304)"><path class="ej" d="M297.656-405.575h20.521v18.852H297.656Z" transform="translate(-145.062 475.625)"/></g></g><g class="eu" transform="translate(131.162 -481.859)"><g class="t" transform="translate(-155.604 -72.967)"><path class="el" d="M299.139-404.1h19.143v17.525H299.139Z" transform="translate(-145.856 474.817)"/></g></g><g class="ev" transform="translate(135.882 -477.806)"><g class="t" transform="translate(-160.325 -77.02)"><path class="en" d="M309.306-395.11h9.7v9.419h-9.7Z" transform="translate(-151.303 469.877)"/></g></g><g class="ew" transform="translate(137.294 -476.609)"><g class="t" transform="translate(-161.736 -78.216)"><path class="ej" d="M312.346-392.456h6.963v6.99h-6.963Z" transform="translate(-152.931 468.419)"/></g></g><g class="ex" transform="translate(141.58 -478.965)"><g class="t" transform="translate(-166.022 -75.861)"><path class="al" d="M321.577-397.681h16.685v13.34H321.577Z" transform="translate(-157.876 471.289)"/></g></g><g class="ey" transform="translate(139.18 -429.513)"><g class="t" transform="translate(-163.623 -125.312)"><path class="al" d="M316.409-287.961h20.91v7.647h-20.91Z" transform="translate(-155.108 411.02)"/></g></g></g></g><g transform="translate(87.762 615.373)"><g class="dj" transform="translate(184.621 -520.255)"><g class="dk" transform="translate(-248.488 -38.927)"><path class="dl" d="M367.83-500.829h19.635v12.654H367.83Z" transform="translate(-122.419 536.77)"/></g></g><g class="dm" transform="translate(103.499 -522.802)"><g class="dk" transform="translate(-167.364 -36.38)"><path class="u" d="M235.992-505.093h87.889V-449.7H235.992Z" transform="translate(-71.705 538.487)"/></g></g><g class="dn" transform="translate(96.754 -489.037)"><g class="dk" transform="translate(-160.619 -70.146)"><path class="dl" d="M225.03-448.563h17.581V-431.5H225.03Z" transform="translate(-67.488 515.723)"/></g></g><g class="do" transform="translate(187.748 -536.68)"><g class="dk" transform="translate(-251.613 -22.502)"><path class="u" d="M372.909-528.328h16.76v24.249h-16.76Z" transform="translate(-124.373 547.843)"/></g></g><g class="dp" transform="translate(189.537 -533.015)"><g class="dk" transform="translate(-253.403 -26.168)"><path class="dq" d="M375.818-522.19h12.6v17.085h-12.6Z" transform="translate(-125.492 545.372)"/></g></g><g class="dr" transform="translate(187.73 -541.434)"><g class="dk" transform="translate(-251.596 -17.749)"><path class="u" d="M372.881-536.285h16.794v16.3H372.881Z" transform="translate(-124.362 551.047)"/></g></g><g class="ds" transform="translate(189.716 -539.505)"><g class="dk" transform="translate(-253.582 -19.677)"><path class="dq" d="M376.108-533.057h12.822v12.446H376.108Z" transform="translate(-125.603 549.747)"/></g></g></g></g></svg>